# xmcd
#
# Track frame offsets:
#	150
#	16060
#	30882
#	48412
#	66740
#	86092
#	98527
#	107787
#	127095
#	142845
#	157787
#	174972
#	187945
#	208830
#	224250
#	241990
#	263202
#	278312
#	299277
#	315720
#	332160
#
# Disc length: 4699 seconds
#
# Revision: 1
# Processed by: cddbd v1.4PL0 Copyright (c) Steve Scherf et al.
# Submitted via: audiograbber 1.80
#
DISCID=22125915
DTITLE=Various Artist - Heart Full Of Soul 2 - CD 2
DYEAR=1900
DGENRE=
TTITLE0=Jocelyn Brown - Somebody Else's Guy
TTITLE1=The Real Thing - You To Me Are Everything
TTITLE2=Sister Sledge - Thinking Of You
TTITLE3=Randy Crawford - Almaz
TTITLE4=Isley Brothers - That Lady
TTITLE5=James Brown - It's A Man's Man's World
TTITLE6=Bill Withers - Ain't No Sunshine
TTITLE7=Odyseey - If You're Looking For A Way Out
TTITLE8=Jermaine Jackson - Do What You Do
TTITLE9=Dorothy Moore - Misty Blue
TTITLE10=Detroit Spinners - Working My Way Back To You - Forgive Me, Girl
TTITLE11=Jackie Wilson - I Get The Sweetest Feeling
TTITLE12=Isacc Hayes - (They Long To Be) Close To You
TTITLE13=Millie Jackson - (If Loving You Is Wrong) I Don't Want To Be Right
TTITLE14=Force MDs - Tender Love
TTITLE15=Hi Gloss - You'll Never Know
TTITLE16=Pointer Sisters - Fire
TTITLE17=Evelyn King - Love Come Down
TTITLE18=Imagination - Just An Illusion
TTITLE19=Candi Staton - Suspicious Minds
TTITLE20=Gladys Knight - Try To Remember - The Way We Were
EXTD=
EXTT0=
EXTT1=
EXTT2=
EXTT3=
EXTT4=
EXTT5=
EXTT6=
EXTT7=
EXTT8=
EXTT9=
EXTT10=
EXTT11=
EXTT12=
EXTT13=
EXTT14=
EXTT15=
EXTT16=
EXTT17=
EXTT18=
EXTT19=
EXTT20=
PLAYORDER=
